<svg id="Base" xmlns="http://www.w3.org/2000/svg" viewBox="0 0 500 500"><defs><style>.cls-1{fill:#333;}</style></defs><title>ServiceIcons</title><path class="cls-1" d="M420.7,422.28c-57.9,0-115.72,2.14-173.27-.95-26.74-1.44-55.22-8.64-79-20.89-60.2-31.09-89.92-83.78-91.17-151.36-1-56.49-.22-113-.22-171.06,8-.37,14.59-.93,21.13-.94q72-.1,144.05,0c102.35.24,174.51,66.56,179.55,168.44,2.77,55.88.58,112,.53,168C422.35,415.88,421.49,418.24,420.7,422.28Zm-28.49-33c0-50.46,3.1-102.23-.73-153.47-5.66-75.5-66.05-128.49-142.2-129.59-41.83-.6-83.67-.15-125.5-.07-5.4,0-10.79.67-17.31,1.1,0,49.2-.45,97.13.12,145.06.78,66,47.63,127.72,113,135.57C275.83,394.62,333.52,389.27,392.21,389.27ZM249.56,364c-64.41-.06-114.26-50-114.33-114.46C135.16,185.77,186,134.29,249.34,134c63.7-.27,115.9,52.16,115.71,116.22C364.87,313.69,313.72,364.07,249.56,364Zm-.43-28.76c47.41.17,86.15-37.7,86.49-84.54.35-48.25-38-87.15-85.84-87.11a85.71,85.71,0,0,0-85.52,85.55C164.19,296.78,201.93,335.07,249.13,335.24Zm.55-142.69c33,0,57.11,23.69,57.28,56.35.17,33-25.52,59-58,58.48-31.13-.45-57.25-27.08-57.14-58.22C192,217.35,217.25,192.59,249.68,192.55Zm-.8,85.55c14.72.53,28.44-12.27,29.23-27.29a27.94,27.94,0,0,0-26.56-29.41c-15.91-.88-30.15,12.16-30.33,27.76C221.06,264.09,233.92,277.55,248.88,278.1Z"/></svg>